:SAMPLES-PER-SECOND 30
:FULLY-SPECIFIED
:DEGREES
106
root  34.93306318 36.52810525 -14.55125884 11.13287354 7.364808559 3.630129099
lowerback  -7.819289684 2.76609993 2.822930098
upperback  -4.294040203 3.131180048 -4.423709869
thorax  0.3330860138 1.310979962 -5.93324995
lowerneck  -15.3178997 0.7313770056 2.295120001
upperneck  10.71080017 -0.4631748796 5.549920082
head  5.768929958 0.2371450067 1.339100003
lclavicle  0 -4.497500157e-015 -2.743230041e-014
lhumerus  -44.25360107 26.36160088 67.96890259
lradius  -0.4914390743 -6.507048965e-006 27.31209755
lwrist  4.824992743e-007 -3.790274832e-007 -31.34449959
lhand  -3.530740041e-031 -36.67699814 -10.53429985
lfingers  90 7.125020027 -90
lthumb  94.68231201 -25.38048553 100.8179474
rclavicle  0 -4.497500157e-015 -2.743230041e-014
rhumerus  50.04880142 2.254620314 -53.79040146
rradius  -5.16745672e-007 2.214343908e-008 75.35420227
rwrist  1.129822067e-006 0.001802438172 -175.6329956
rhand  -3.109865207e-031 4.267010212 -6.295259953
rfingers  -90 -7.125020027 -90
rthumb  -84.47419739 -9.593621254 -59.86533737
rfemur  -13.14547729 12.17551899 14.3516264
rtibia  -1.614053369 1.711340547 21.55847168
rfoot  -1.279709697 -16.46897888 -42.49814224
rtoes  4.166442394 19.57912064 -102.2645721
lfemur  -10.82155514 -20.18784714 -18.57593918
ltibia  3.510967016 2.135078192 14.09289837
lfoot  0.6263199449 -28.93957901 30.95499992
ltoes  -8.424160957 -18.20553398 -115.3621216
107
root  34.93008351 36.52625497 -14.55784295 11.15905094 7.596699715 3.695662022
lowerback  -7.848370552 2.779809952 2.845390797
upperback  -4.289390087 3.149149895 -4.425570011
thorax  0.3574140072 1.320909977 -5.94520998
lowerneck  -15.3696003 0.6732379794 2.309400082
upperneck  10.73579979 -0.5463250875 5.536180019
head  5.786960125 0.1976599693 1.325150013
lclavicle  0 -4.497500157e-015 -2.743230041e-014
lhumerus  -44.3268013 26.45739937 67.88289642
lradius  -0.491509527 -6.507048965e-006 27.36809731
lwrist  4.824992743e-007 -3.790274832e-007 -31.4272995
lhand  -3.525756455e-031 -36.73279953 -10.58670044
lfingers  90 7.125020027 -90
lthumb  94.71923828 -25.42999268 100.8822556
rclavicle  0 -4.497500157e-015 -2.743230041e-014
rhumerus  51.03979874 2.11476016 -53.71229935
rradius  -5.16745672e-007 2.214343908e-008 74.479599
rwrist  1.129822067e-006 0.001802438172 -175.1900024
rhand  -3.105763227e-031 4.422589779 -6.354859829
rfingers  -90 -7.125020027 -90
rthumb  -84.46611023 -9.55079174 -59.71824265
rfemur  -13.21922302 12.17177582 14.36171532
rtibia  -1.694365025 1.77482903 21.72979546
rfoot  -1.36187613 -16.31143379 -42.64215088
rtoes  4.173394203 19.58011818 -102.2853241
lfemur  -10.81278419 -20.36649132 -18.62656784
ltibia  3.573221922 2.136315346 14.00603962
lfoot  0.6290665865 -28.89644432 30.91017151
ltoes  -8.468183517 -18.18564606 -115.5031052
108
root  34.92675541 36.52364175 -14.56319403 11.16122246 7.828516006 3.743658781
lowerback  -7.904049873 2.779599905 2.838139772
upperback  -4.27944994 3.150209904 -4.414589882
thorax  0.3976100087 1.323340058 -5.927060127
lowerneck  -15.44810009 0.6268740296 2.307159901
upperneck  10.78549957 -0.6117709875 5.520609856
head  5.816880226 0.1673140228 1.315260053
lclavicle  0 -4.497500157e-015 -2.743230041e-014
lhumerus  -44.29520035 26.84910011 67.68399811
lradius  -0.4915829301 -6.507048965e-006 27.18850136
lwrist  4.824992743e-007 -3.790274832e-007 -31.7989006
lhand  -3.526466653e-031 -36.7201004 -10.57989979
lfingers  90 7.125020027 -90
lthumb  94.71190643 -25.42382812 100.8680801
rclavicle  0 -4.497500157e-015 -2.743230041e-014
rhumerus  52.22319794 2.009120703 -53.61790085
rradius  -5.16745672e-007 2.214343908e-008 73.45970154
rwrist  1.129822067e-006 0.001802438172 -174.7070007
rhand  -3.124313299e-031 4.137340069 -6.081769943
rfingers  -90 -7.125020027 -90
rthumb  -84.39779663 -9.771421432 -59.97394943
rfemur  -13.23161316 12.13992214 14.3812294
rtibia  -1.755134106 1.832374215 21.82954025
rfoot  -1.417380095 -16.15787506 -42.78253174
rtoes  4.186020851 19.58115387 -102.3230057
lfemur  -10.81156063 -20.52993011 -18.6550808
ltibia  3.605658531 2.135867596 13.98053551
lfoot  0.6361451149 -28.88980293 30.85650635
ltoes  -8.486862183 -18.1771698 -115.5629654
109
root  34.9219555 36.5212418 -14.57070478 11.15145969 8.038088799 3.773640633
lowerback  -7.97108984 2.794739962 2.86689949
upperback  -4.278999805 3.166919947 -4.436439991
thorax  0.4397729933 1.331629992 -5.962609768
lowerneck  -15.51140022 0.5840409994 2.32833004
upperneck  10.83740044 -0.6776909232 5.504640102
head  5.845009804 0.1372209936 1.301249981
lclavicle  0 -4.497500157e-015 -2.743230041e-014
lhumerus  -44.30770111 27.05050087 67.52580261
lradius  -0.4916597605 -6.507048965e-006 27.06200027
lwrist  4.824992743e-007 -3.790274832e-007 -31.95999908
lhand  -3.526573919e-031 -36.66770172 -10.58590031
lfingers  90 7.125020027 -90
lthumb  94.68867493 -25.43140984 100.8125916
rclavicle  0 -4.497500157e-015 -2.743230041e-014
rhumerus  53.21379471 1.887390256 -53.33110046
rradius  -5.16745672e-007 2.214343908e-008 72.62359619
rwrist  1.129822067e-006 0.001802438172 -174.4660034
rhand  -3.105470462e-031 3.902070045 -6.363430023
rfingers  -90 -7.125020027 -90
rthumb  -84.59819031 -9.514504433 -60.22792435
rfemur  -13.21455765 12.07389736 14.41641331
rtibia  -1.804407358 1.848008513 21.87920189
rfoot  -1.456902146 -16.09083557 -42.90081024
rtoes  4.17757988 19.58222961 -102.2978134
lfemur  -10.83681965 -20.66640282 -18.64828873
ltibia  3.60928607 2.146171808 14.01307774
lfoot  0.6587015986 -28.9357605 30.82173347
ltoes  -8.438928604 -18.19887733 -115.4094009
